<svg id="SvgjsSvg1001" width="288" height="288" xmlns="http://www.w3.org/2000/svg" version="1.1" xmlns:xlink="http://www.w3.org/1999/xlink" xmlns:svgjs="http://svgjs.com/svgjs"><defs id="SvgjsDefs1002"></defs><g id="SvgjsG1008"><svg xmlns="http://www.w3.org/2000/svg" width="288" height="288" version="1.0" viewBox="0 0 910 980"><g transform="matrix(.1 0 0 -.1 0 980)" fill="#ffffff" class="color000 svgShape"><path d="M2870 9614c0-185 8-256 29-277 6-6 40-14 75-18 97-12 240-92 337-189 55-55 113-167 139-270l19-75-22-25c-12-13-65-71-118-127-249-264-388-522-463-856-25-111-45-277-34-277 3 0 25 7 49 15 105 37 483 137 643 170 568 116 1381 122 1976 14 131-23 529-123 667-167 51-16 95-27 98-24 16 17-17 229-60 378-84 287-202 494-424 739-50 55-101 120-113 144-19 40-20 50-10 98 42 201 199 362 419 431 54 17 110 34 126 37l27 5 0 232 0 231-82-6c-146-10-366-85-488-166-87-57-208-173-280-268-28-36-79-124-115-195-36-70-67-128-69-128-1 0-61 16-132 36-193 53-301 67-519 67-223 0-337-16-507-68-65-20-123-33-129-30-5 4-32 53-59 108-55 115-119 214-194 301-147 171-466 328-698 343l-88 6 0-189zM4730 5780l0-1650 56-157c265-748 652-1267 1234-1658 217-145 418-241 703-334 366-119 635-154 1008-133 474 27 703 113 925 344 228 238 370 551 419 926 20 152 20 459 0 618-86 689-381 1352-884 1984-133 168-464 504-621 632-700 569-1411 882-2305 1018-107 16-492 60-526 60-5 0-9-623-9-1650zM4137 7409c-387-38-829-132-1157-244-667-230-1249-594-1756-1100-441-439-766-928-984-1480-234-594-295-1204-170-1697 112-437 380-792 700-928 337-142 943-155 1444-30 471 119 912 364 1264 704 267 258 462 522 631 856 91 178 126 262 206 485l57 160-7 1555c-4 855-10 1593-14 1640l-6 85-60 1c-33 1-99-2-148-7zM4498 3478c-48-87-198-384-198-393 0-3 113-5 250-5l251 0-121 240c-67 132-125 240-129 240-4 0-28-37-53-82zM3830 2492c-124-125-260-257-303-292-45-36-77-70-75-79 4-19 34-27 203-51 548-78 1320-71 1845 16 85 14 158 29 162 33 4 3-27 33-70 66-42 33-183 167-313 297l-235 238-495 0-494 0-225-228zM5845 1789c-495-95-636-109-1175-116-675-9-1023 21-1548 132-131 27-157 22-391-80l-129-57 10-36c14-51 132-305 174-373 58-96 95-111 429-178 473-94 836-131 1297-131 392 0 729 28 1123 95 173 29 496 96 606 125 34 9 39 17 142 227 58 120 109 230 112 244 6 26 2 28-189 113-108 47-200 85-204 85-4-1-119-23-257-50zM3170 718c0-23 261-271 375-356 261-194 468-287 750-339 125-24 398-23 522 0 269 50 556 189 796 385 39 33 123 108 185 167 105 101 140 141 129 151-2 3-98-11-213-30-464-78-662-90-1339-83-365 4-532 10-620 21-129 17-539 83-567 92-11 3-18 0-18-8z" fill="#ffffff" class="color000 svgShape"></path></g></svg></g></svg>