<svg xmlns="http://www.w3.org/2000/svg" viewBox="0 0 36.44 36.53"><defs><style>.cls-1{fill:#ffe21f;}.cls-2{fill:#fff;}</style></defs><g id="Layer_2" data-name="Layer 2"><g id="ELEMENTS"><circle class="cls-1" cx="18.22" cy="18.26" r="17.69" transform="translate(-2.7 33.35) rotate(-80.87)"/><path class="cls-2" d="M0,36.53l2.62-9.77a18.05,18.05,0,1,1,7.2,7.14Zm10.31-6.3.62.37a14.66,14.66,0,1,0-5-5l.38.62L4.82,31.7Z"/><path class="cls-2" d="M13.33,27.1V24.18a21.85,21.85,0,0,0,6.42-5,8.31,8.31,0,0,0,2.13-5.33,3.25,3.25,0,0,0-.79-2.39,3.19,3.19,0,0,0-2.37-.8,4.67,4.67,0,0,0-2.21.62,6.21,6.21,0,0,0-2,1.63l-1.81-1.79a6.44,6.44,0,0,1,2.56-2.08,8.11,8.11,0,0,1,3.48-.78,6.12,6.12,0,0,1,4.39,1.39,5.53,5.53,0,0,1,1.46,4.2,9.43,9.43,0,0,1-1.78,5.42,19.27,19.27,0,0,1-5.43,5V27.1Zm.79,0V24.67H25.4V27.1Z"/></g></g></svg>