<svg xmlns="http://www.w3.org/2000/svg" viewBox="0 0 36.44 36.53"><defs><style>.cls-1{fill:#ffe21f;}.cls-2{fill:#fff;}</style></defs><g id="Layer_2" data-name="Layer 2"><g id="ELEMENTS"><circle class="cls-1" cx="18.22" cy="18.26" r="17.69" transform="translate(-2.7 33.35) rotate(-80.87)"/><path class="cls-2" d="M0,36.53l2.62-9.77a18.05,18.05,0,1,1,7.2,7.14Zm10.31-6.3.62.37a14.66,14.66,0,1,0-5-5l.38.62L4.82,31.7Z"/><path class="cls-2" d="M16.31,18.61,16,16.91a13.36,13.36,0,0,0,3.35-.81,4.5,4.5,0,0,0,1.89-1.3,2.65,2.65,0,0,0,.61-1.7,2.21,2.21,0,0,0-.74-1.77A3.1,3.1,0,0,0,19,10.69a5.26,5.26,0,0,0-2.11.5,7.09,7.09,0,0,0-2.11,1.49L13,10.89a7.13,7.13,0,0,1,2.78-2,9.69,9.69,0,0,1,3.53-.62,6.24,6.24,0,0,1,3.92,1.08,3.67,3.67,0,0,1,1.38,3.07,4.26,4.26,0,0,1-1.07,2.91A5.4,5.4,0,0,1,20.73,17v1.57Zm1.75,8.75a17.79,17.79,0,0,1-2.63-.17,13.52,13.52,0,0,1-2.12-.45l.32-2.5c.53.15,1.13.31,1.8.47A10.52,10.52,0,0,0,18,25a5.33,5.33,0,0,0,3.16-.81,2.64,2.64,0,0,0,1.12-2.27,2.6,2.6,0,0,0-.64-1.78A4,4,0,0,0,19.72,19a10.31,10.31,0,0,0-3-.38h-.42L16,16.91l4,.32a5.75,5.75,0,0,1,3.6,1.44A4.49,4.49,0,0,1,25,22.14,4.57,4.57,0,0,1,23.18,26,8.3,8.3,0,0,1,18.06,27.36Z"/></g></g></svg>