<svg xmlns="http://www.w3.org/2000/svg" viewBox="0 0 36.44 36.53"><defs><style>.cls-1{fill:#ffe21f;}.cls-2{fill:#fff;}</style></defs><g id="Layer_2" data-name="Layer 2"><g id="ELEMENTS"><circle class="cls-1" cx="18.22" cy="18.26" r="17.69" transform="translate(-2.7 33.35) rotate(-80.87)"/><path class="cls-2" d="M0,36.53l2.62-9.77a18.05,18.05,0,1,1,7.2,7.14Zm10.31-6.3.62.37a14.66,14.66,0,1,0-5-5l.38.62L4.82,31.7Z"/><path class="cls-2" d="M19.37,27.36a6.85,6.85,0,0,1-4.65-1.43,5,5,0,0,1-1.65-4h2.8a2.85,2.85,0,0,0,.91,2.26,3.86,3.86,0,0,0,2.61.8A3.32,3.32,0,0,0,22,24a4,4,0,0,0,.92-2.83,3.73,3.73,0,0,0-1-2.78,3.85,3.85,0,0,0-2.82-1,7,7,0,0,0-3.42.86L15.89,16a6.87,6.87,0,0,1,2.05-.79A10.21,10.21,0,0,1,20,15a5.39,5.39,0,0,1,4.16,1.6,6.38,6.38,0,0,1,1.48,4.52,7.18,7.18,0,0,1-.74,3.38,5,5,0,0,1-2.13,2.13A7.27,7.27,0,0,1,19.37,27.36ZM14.2,18.22l.26-9.67h2.69l-.26,8.05-1.23,1.62ZM15.71,11l-.23-2.43h9V11Z"/></g></g></svg>